<?xml version="1.0" encoding="UTF-8" standalone="no"?>
<svg width="92px" height="28px" viewBox="0 0 92 28" version="1.1" xmlns="http://www.w3.org/2000/svg" xmlns:xlink="http://www.w3.org/1999/xlink" xmlns:sketch="http://www.bohemiancoding.com/sketch/ns">
    <!-- Generator: Sketch Beta 3.0.4 (8156) - http://www.bohemiancoding.com/sketch -->
    <title>about_logo</title>
    <desc>Created with Sketch Beta.</desc>
    <defs>
        <linearGradient x1="99.999544%" y1="49.9986321%" x2="0%" y2="49.9986321%" id="linearGradient-1">
            <stop stop-color="#E60012" offset="0%"></stop>
            <stop stop-color="#E60012" stop-opacity="0.5" offset="100%"></stop>
        </linearGradient>
    </defs>
    <g id="Page-1" stroke="none" stroke-width="1" fill="none" fill-rule="evenodd" sketch:type="MSPage">
        <g id="logo-2" sketch:type="MSLayerGroup">
            <path d="M0,7.36018182 C0,18.7587273 9.3076338,28 20.785169,28 L28.1100282,28 L28.1100282,20.7276364 C28.1100282,9.32909091 18.8023944,0.0878181818 7.32485915,0.0878181818 L0,0.0878181818 L0,7.36018182 L0,7.36018182 Z" id="Shape" opacity="0.5" fill="url(#linearGradient-1)" sketch:type="MSShapeGroup"></path>
            <path d="M11.9722676,21.7585455 C20.8825775,21.7585455 28.1087465,14.5829091 28.1087465,5.73363636 L28.1087465,0.0865454545 L22.4218873,0.0865454545 C13.5102958,0.0865454545 6.28412676,7.26218182 6.28412676,16.1101818 L6.28412676,21.7585455 L11.9722676,21.7585455 L11.9722676,21.7585455 Z" id="Shape" opacity="0.5" fill="#E60012" sketch:type="MSShapeGroup"></path>
            <path d="M57.6222254,23.7172727 C57.4850845,24.5445455 57.1057042,25.0052727 55.9598732,25.0052727 L51.7815634,25.0052727 C51.1445634,25.0052727 50.3755493,24.4427273 50.3755493,23.0669091 L50.3755493,18.0116364 C54.0962958,16.4856364 56.8711549,14.4289091 59.0705352,12.6394545 L58.0003239,11.0574545 C56.7045352,12.2678182 53.0645352,14.8412727 50.3755493,15.9918182 L50.3755493,8.67872727 L48.3863662,8.67872727 L48.3863662,16.5658182 L45.1026761,17.6361818 L45.6332958,19.3861818 L48.3863662,18.4698182 L48.3863662,23.6307273 C48.3863662,25.6683636 49.9013239,26.7476364 51.7174789,26.7476364 L56.1572535,26.7476364 C57.5068732,26.7476364 58.9987606,26.2092727 59.2807324,24.3663636 C59.402493,23.5734545 59.3986479,22.5247273 59.3986479,21.7038182 L57.7542394,20.8663636 C57.7362958,22.3338182 57.7747465,22.8034545 57.6222254,23.7172727 L57.6222254,23.7172727 Z M52.6377324,0.178181818 L50.7100704,0.178181818 L50.7100704,3.71509091 L43.026338,3.71509091 L43.026338,0.178181818 L41.0973944,0.178181818 L41.0973944,3.71509091 L33.7456197,3.71509091 L33.7456197,5.64709091 L41.0973944,5.64709091 L41.0973944,8.61890909 L41.8202676,8.61890909 C40.7756901,10.3434545 39.510662,12.0476364 38.0239014,13.7314545 C36.6986338,15.2383636 35.1311268,16.8025455 33.3239437,18.4278182 L34.6799718,19.9729091 C35.4835915,19.2792727 36.3166901,18.4863636 37.1805493,17.5954545 L39.7567465,15.0003636 L39.7567465,27.3738182 L41.715169,27.3738182 L41.715169,12.8316364 C42.331662,11.8058182 42.8199859,11.0854545 43.6274507,9.422 L42.2419437,8.62018182 L43.0250563,8.62018182 L43.0250563,5.64709091 L50.7087887,5.64709091 L50.7087887,8.69272727 L52.6364507,8.69272727 L52.6364507,5.64709091 L59.9587465,5.64709091 L59.9587465,3.71509091 L52.6364507,3.71509091 L52.6364507,0.178181818 L52.6377324,0.178181818 Z M82.6177465,5.91436364 C82.8176901,6.68690909 83.0189155,7.59945455 83.2201408,8.64945455 L83.4610986,10.0761818 C83.4803239,10.2556364 83.521338,10.4923636 83.5815775,10.7901818 C83.6418169,11.1274545 83.6815493,11.3641818 83.7020563,11.5029091 L85.2388028,11.0574545 C85.0375775,9.98709091 84.8568592,9.07581818 84.6966479,8.32363636 C84.4954225,7.31309091 84.2749718,6.37254545 84.0340141,5.50072727 L82.6177465,5.91436364 L82.6177465,5.91436364 Z M85.54,3.50636364 L81.7743944,3.50636364 L81.7743944,5.20036364 L90.5424366,5.20036364 L90.5424366,3.50636364 L87.2882254,3.50636364 L87.107507,2.73381818 C87.0472676,2.41690909 86.9870282,2.14963636 86.9267887,1.93072727 C86.7652958,1.316 86.5845775,0.731818182 86.3846338,0.176909091 L84.6376901,0.652909091 L85.1503662,2.13945455 L85.54,3.50636364 L85.54,3.50636364 Z M65.3828592,11.3832727 L66.9196056,10.9365455 C66.6991549,9.23363636 66.3479718,7.44036364 65.8647746,5.558 L64.4190282,6.00345455 C64.7996901,7.70763636 65.1213944,9.50090909 65.3828592,11.3832727 L65.3828592,11.3832727 Z M72.0117606,3.50636364 L69.0292676,3.50636364 C68.8882817,2.89290909 68.7472958,2.338 68.6075915,1.84290909 C68.4268732,1.18872727 68.2346197,0.575272727 68.0346761,0 L66.3479718,0.534545455 L66.8606479,2.05036364 C67.0208592,2.60527273 67.1515915,3.09018182 67.2528451,3.50636364 L63.5167183,3.50636364 L63.5167183,5.20036364 L72.0130423,5.20036364 L72.0130423,3.50636364 L72.0117606,3.50636364 Z M90.9038732,13.4336364 L90.9038732,11.7090909 L87.9200986,11.7090909 C88.543,9.80763636 89.0556761,7.87563636 89.4568451,5.91436364 L87.7996197,5.37854545 L87.1677465,8.61890909 C86.9062817,9.80763636 86.6460986,10.8385455 86.3846338,11.7103636 L81.8346338,11.7103636 L81.8346338,13.4349091 L85.2990423,13.4349091 L85.2990423,17.9518182 L82.4677887,17.9518182 L82.4677887,19.7056364 L85.2990423,19.7056364 L85.2990423,27.1358182 L87.1369859,27.1358182 L87.1369859,19.7056364 L90.6013944,19.7056364 L90.6013944,17.9518182 L87.1369859,17.9518182 L87.1369859,13.4349091 L90.9038732,13.4349091 L90.9038732,13.4336364 Z M81.0207606,9.95654545 C80.9605211,8.41145455 80.9310423,6.06327273 80.9310423,2.91327273 L81.8653944,2.73509091 C82.0050986,2.716 82.1268592,2.68545455 82.226831,2.646 L81.6539155,0.981272727 C79.0226056,1.596 76.0298592,2.09109091 72.6743944,2.46781818 L72.6743944,7.46072727 C72.6743944,8.57054545 72.6641408,9.53145455 72.6449155,10.3447273 C72.6449155,11.3349091 72.6244085,12.236 72.5846761,13.0492727 C72.4847042,14.8730909 72.3142394,16.4869091 72.0732817,17.8932727 C71.5106197,21.0636364 70.3955493,23.8178182 68.7293521,26.1558182 L70.2955775,27.2847273 C72.0232958,24.6692727 73.1678451,21.6070909 73.730507,18.1007273 C73.9919718,16.5543636 74.1624366,14.7521818 74.2431831,12.6916364 C74.3034225,11.7994545 74.3341831,10.8003636 74.3341831,9.68927273 C74.3534085,8.778 74.363662,7.68854545 74.363662,6.41963636 L74.363662,3.92381818 L75.8094085,3.74563636 L75.8388873,24.8767273 L75.0698732,25.0116364 C75.0698732,25.0116364 75.186507,25.7994545 75.2800704,26.4167273 C75.8965634,26.3123636 78.5560704,25.5054545 79.1917887,25.1872727 C79.2943239,25.7065455 79.4019859,26.1481818 79.4852958,26.8672727 L80.9310423,26.3925455 C80.9310423,26.3925455 79.6096197,21.6058182 79.2879155,20.5354545 L78.243338,20.8065455 C78.5842676,22.1543636 78.8175352,23.0987273 78.9764648,23.9438182 C78.442,24.1869091 77.8037183,24.3956364 77.4961127,24.4503636 L77.5268732,3.53563636 C78.189507,3.43763636 78.7624225,3.33836364 79.244338,3.23909091 C79.3250845,8.72709091 79.4955493,12.7501818 79.7570141,15.3058182 C80.1979155,20.0810909 81.1527746,24.024 82.6190282,27.1345455 L84.1250141,26.1545455 C82.7587324,23.5581818 81.8551408,19.8341818 81.4129577,14.9787273 C81.2117324,13.1574545 81.081,11.4825455 81.0207606,9.95654545 L81.0207606,9.95654545 Z M71.5593239,17.6247273 L68.5165915,17.6247273 L68.6063099,16.1687273 C68.6268169,15.8123636 68.6562958,14.8412727 68.6973099,13.2554545 L71.8912817,13.2554545 L71.8912817,11.5321818 L69.4201831,11.5321818 C69.9828451,9.68927273 70.454507,7.80690909 70.8364507,5.88509091 L69.1484648,5.43836364 C68.7460141,7.756 68.324338,9.78727273 67.8834366,11.5321818 L63.1834789,11.5321818 L63.1834789,13.2554545 L66.8888451,13.2554545 C66.8888451,14.6032727 66.8785915,15.5336364 66.8593662,16.0490909 C66.8593662,16.2870909 66.8491127,16.534 66.8298873,16.7910909 L66.7696479,17.6234545 L63.4551972,17.6234545 L63.4551972,19.3772727 L66.6196901,19.3772727 C66.3582254,20.9032727 66.0365211,22.0627273 65.6558592,22.8543636 C65.193169,23.8458182 64.4305634,24.7952727 63.3667606,25.7078182 L64.812507,27.1345455 C65.9570563,26.0043636 66.8016901,24.7965455 67.3438451,23.5085455 C67.5848028,22.9332727 67.7847465,22.2892727 67.9462394,21.5765455 C68.0872254,20.9834545 68.2269296,20.2490909 68.3679155,19.3785455 L71.5618873,19.3785455 L71.5618873,17.6247273 L71.5593239,17.6247273 Z" id="Shape" fill="#03061F" sketch:type="MSShapeGroup"></path>
        </g>
    </g>
</svg>